<svg xmlns="http://www.w3.org/2000/svg" xmlns:xlink="http://www.w3.org/1999/xlink" width="300" zoomAndPan="magnify" viewBox="0 0 224.87999 74.999997" height="100" preserveAspectRatio="xMidYMid meet" version="1.0"><defs><g/></defs><g fill="#ffffff" fill-opacity="1"><g transform="translate(6.856821, 46.252311)"><g><path d="M 27.21875 -41.59375 C 27.21875 -39.59375 26.078125 -34.09375 23.796875 -25.09375 C 23.316406 -23.132812 22.894531 -21.425781 22.53125 -19.96875 C 22.175781 -18.519531 21.851562 -17.160156 21.5625 -15.890625 C 21.269531 -14.617188 20.96875 -13.25 20.65625 -11.78125 C 20.351562 -10.3125 19.984375 -8.5625 19.546875 -6.53125 C 17.804688 1.8125 16.226562 6.582031 14.8125 7.78125 C 14.082031 8.394531 13.316406 8.5625 12.515625 8.28125 C 11.753906 7.988281 11.320312 7.40625 11.21875 6.53125 C 11.175781 6.351562 11.179688 5.878906 11.234375 5.109375 C 11.296875 4.347656 11.398438 3.535156 11.546875 2.671875 C 11.648438 1.867188 11.738281 1.1875 11.8125 0.625 C 11.882812 0.0625 11.960938 -0.5 12.046875 -1.0625 C 12.140625 -1.625 12.269531 -2.3125 12.4375 -3.125 C 12.601562 -3.945312 12.8125 -5.007812 13.0625 -6.3125 C 13.320312 -7.476562 13.53125 -8.519531 13.6875 -9.4375 C 13.851562 -10.363281 14.035156 -11.378906 14.234375 -12.484375 C 14.429688 -13.597656 14.675781 -15.007812 14.96875 -16.71875 C 15.15625 -17.769531 15.390625 -18.992188 15.671875 -20.390625 C 15.960938 -21.785156 16.21875 -22.921875 16.4375 -23.796875 C 16.625 -24.703125 16.796875 -25.5 16.953125 -26.1875 C 17.117188 -26.875 17.203125 -27.253906 17.203125 -27.328125 C 17.273438 -27.722656 17.109375 -27.546875 16.703125 -26.796875 C 16.304688 -26.054688 15.753906 -24.914062 15.046875 -23.375 C 14.335938 -21.832031 13.539062 -20.0625 12.65625 -18.0625 C 11.769531 -16.070312 10.890625 -14.007812 10.015625 -11.875 C 9.140625 -9.726562 8.472656 -8.171875 8.015625 -7.203125 C 7.566406 -6.242188 7.195312 -5.671875 6.90625 -5.484375 C 6.625 -5.304688 6.265625 -5.273438 5.828125 -5.390625 C 5.066406 -5.566406 4.628906 -6.054688 4.515625 -6.859375 C 4.484375 -7.078125 4.492188 -7.640625 4.546875 -8.546875 C 4.597656 -9.453125 4.6875 -10.539062 4.8125 -11.8125 C 4.945312 -13.082031 5.082031 -14.378906 5.21875 -15.703125 C 5.363281 -17.023438 5.507812 -18.195312 5.65625 -19.21875 C 5.726562 -19.613281 5.773438 -19.945312 5.796875 -20.21875 C 5.816406 -20.488281 5.804688 -20.644531 5.765625 -20.6875 C 5.734375 -20.6875 5.582031 -20.445312 5.3125 -19.96875 C 5.039062 -19.5 4.691406 -18.875 4.265625 -18.09375 C 3.847656 -17.320312 3.421875 -16.515625 2.984375 -15.671875 C 2.554688 -14.835938 2.160156 -14.0625 1.796875 -13.34375 C 1.472656 -12.644531 1.128906 -11.851562 0.765625 -10.96875 C 0.398438 -10.082031 0.128906 -9.347656 -0.046875 -8.765625 C -0.410156 -7.492188 -0.6875 -6.675781 -0.875 -6.3125 C -1.125 -5.945312 -1.53125 -5.800781 -2.09375 -5.875 C -2.65625 -5.945312 -2.972656 -6.222656 -3.046875 -6.703125 C -3.085938 -6.835938 -3.023438 -7.332031 -2.859375 -8.1875 C -2.691406 -9.039062 -2.472656 -10.066406 -2.203125 -11.265625 C -1.929688 -12.460938 -1.648438 -13.671875 -1.359375 -14.890625 C -1.066406 -16.109375 -0.796875 -17.148438 -0.546875 -18.015625 C 0.0351562 -19.972656 0.648438 -21.625 1.296875 -22.96875 C 1.953125 -24.3125 2.5 -25.003906 2.9375 -25.046875 C 3.195312 -25.117188 3.46875 -25.046875 3.75 -24.828125 C 4.039062 -24.609375 4.207031 -24.367188 4.25 -24.109375 C 4.28125 -23.960938 4.222656 -23.625 4.078125 -23.09375 C 3.929688 -22.570312 3.769531 -22.003906 3.59375 -21.390625 C 3.226562 -20.304688 2.988281 -19.546875 2.875 -19.109375 C 2.769531 -18.671875 2.738281 -18.453125 2.78125 -18.453125 C 2.8125 -18.453125 3.007812 -18.769531 3.375 -19.40625 C 3.738281 -20.039062 4.15625 -20.789062 4.625 -21.65625 C 5.09375 -22.53125 5.523438 -23.347656 5.921875 -24.109375 C 6.328125 -24.878906 6.585938 -25.40625 6.703125 -25.6875 C 7.128906 -26.738281 7.453125 -27.445312 7.671875 -27.8125 C 7.890625 -28.175781 8.164062 -28.378906 8.5 -28.421875 C 8.894531 -28.492188 9.253906 -28.375 9.578125 -28.0625 C 9.910156 -27.75 10.113281 -27.34375 10.1875 -26.84375 C 10.25 -26.363281 10.207031 -25.332031 10.0625 -23.75 C 9.925781 -22.175781 9.710938 -20.320312 9.421875 -18.1875 C 9.273438 -17.351562 9.164062 -16.617188 9.09375 -15.984375 C 9.019531 -15.347656 9 -15.03125 9.03125 -15.03125 C 9.101562 -14.988281 9.210938 -15.113281 9.359375 -15.40625 C 9.503906 -15.695312 9.6875 -16.0625 9.90625 -16.5 C 11.175781 -19.363281 12.414062 -21.960938 13.625 -24.296875 C 14.84375 -26.640625 16.195312 -29.03125 17.6875 -31.46875 C 18.125 -32.15625 18.578125 -32.941406 19.046875 -33.828125 C 19.523438 -34.722656 19.890625 -35.457031 20.140625 -36.03125 C 20.941406 -37.957031 21.601562 -39.457031 22.125 -40.53125 C 22.65625 -41.601562 23.101562 -42.410156 23.46875 -42.953125 C 23.75 -43.421875 23.988281 -43.726562 24.1875 -43.875 C 24.394531 -44.019531 24.625 -44.113281 24.875 -44.15625 C 25.601562 -44.257812 26.175781 -44.070312 26.59375 -43.59375 C 27.007812 -43.125 27.21875 -42.457031 27.21875 -41.59375 Z M 27.21875 -41.59375 "/></g></g></g><g fill="#ffffff" fill-opacity="1"><g transform="translate(31.026488, 46.252311)"><g><path d="M 30.703125 -28.859375 C 29.867188 -27.035156 29.050781 -25.195312 28.25 -23.34375 C 27.457031 -21.5 26.632812 -19.503906 25.78125 -17.359375 C 24.925781 -15.222656 23.953125 -12.773438 22.859375 -10.015625 C 22.285156 -8.566406 21.613281 -6.804688 20.84375 -4.734375 C 20.082031 -2.671875 19.289062 -0.429688 18.46875 1.984375 C 17.65625 4.398438 16.832031 6.84375 16 9.3125 C 14.914062 12.539062 13.988281 15.171875 13.21875 17.203125 C 12.457031 19.234375 11.785156 20.785156 11.203125 21.859375 C 10.628906 22.929688 10.078125 23.628906 9.546875 23.953125 C 9.023438 24.273438 8.472656 24.363281 7.890625 24.21875 C 7.203125 24.039062 6.675781 23.550781 6.3125 22.75 C 6.164062 22.382812 6.101562 21.710938 6.125 20.734375 C 6.144531 19.753906 6.265625 18.773438 6.484375 17.796875 C 6.804688 16.378906 7.335938 14.484375 8.078125 12.109375 C 8.828125 9.734375 9.734375 7.003906 10.796875 3.921875 C 11.867188 0.835938 13.039062 -2.425781 14.3125 -5.875 C 14.71875 -6.851562 15.144531 -7.988281 15.59375 -9.28125 C 16.050781 -10.570312 16.425781 -11.613281 16.71875 -12.40625 C 17 -13.207031 17.265625 -13.953125 17.515625 -14.640625 C 17.773438 -15.328125 17.941406 -15.742188 18.015625 -15.890625 L 18.296875 -16.5 L 17.859375 -16 C 17.710938 -15.894531 17.4375 -15.597656 17.03125 -15.109375 C 16.632812 -14.617188 16.21875 -14.101562 15.78125 -13.5625 C 13.28125 -10.46875 11.085938 -8.160156 9.203125 -6.640625 C 7.316406 -5.117188 5.59375 -4.265625 4.03125 -4.078125 C 1.738281 -3.859375 0.03125 -4.894531 -1.09375 -7.1875 C -1.664062 -8.34375 -1.96875 -9.898438 -2 -11.859375 C -2.039062 -13.828125 -1.8125 -15.84375 -1.3125 -17.90625 C -0.800781 -20.082031 -0.15625 -22.066406 0.625 -23.859375 C 1.40625 -25.660156 2.222656 -27.101562 3.078125 -28.1875 C 3.929688 -29.28125 4.71875 -29.863281 5.4375 -29.9375 C 6.238281 -30.007812 6.738281 -29.78125 6.9375 -29.25 C 7.132812 -28.726562 6.945312 -28.066406 6.375 -27.265625 C 5.894531 -26.578125 5.535156 -25.976562 5.296875 -25.46875 C 5.066406 -24.96875 4.789062 -24.207031 4.46875 -23.1875 C 3.882812 -21.40625 3.410156 -19.609375 3.046875 -17.796875 C 2.679688 -15.984375 2.484375 -14.332031 2.453125 -12.84375 C 2.410156 -11.90625 2.425781 -11.207031 2.5 -10.75 C 2.570312 -10.300781 2.71875 -9.820312 2.9375 -9.3125 C 3.082031 -8.976562 3.207031 -8.765625 3.3125 -8.671875 C 3.425781 -8.585938 3.59375 -8.5625 3.8125 -8.59375 C 4.320312 -8.664062 5.066406 -9.03125 6.046875 -9.6875 C 7.023438 -10.34375 8.113281 -11.210938 9.3125 -12.296875 C 10.507812 -13.390625 11.6875 -14.585938 12.84375 -15.890625 C 15.707031 -19.117188 18.265625 -22.273438 20.515625 -25.359375 C 22.765625 -28.453125 24.4375 -31.101562 25.53125 -33.3125 C 26.144531 -34.550781 26.820312 -35.8125 27.5625 -37.09375 C 28.3125 -38.382812 29.046875 -39.582031 29.765625 -40.6875 C 30.492188 -41.800781 31.148438 -42.71875 31.734375 -43.4375 C 32.316406 -44.125 32.71875 -44.550781 32.9375 -44.71875 C 33.15625 -44.882812 33.445312 -44.984375 33.8125 -45.015625 C 35.289062 -45.128906 36.140625 -44.441406 36.359375 -42.953125 C 36.429688 -42.554688 36.375 -42.054688 36.1875 -41.453125 C 36.007812 -40.859375 35.671875 -40.015625 35.171875 -38.921875 C 34.984375 -38.523438 34.734375 -37.976562 34.421875 -37.28125 C 34.117188 -36.59375 33.84375 -35.960938 33.59375 -35.390625 C 33.332031 -34.804688 32.921875 -33.878906 32.359375 -32.609375 C 31.796875 -31.335938 31.242188 -30.085938 30.703125 -28.859375 Z M 30.703125 -28.859375 "/></g></g></g><g fill="#ffffff" fill-opacity="1"><g transform="translate(59.714344, 46.252311)"><g><path d="M 7.078125 -20.953125 C 6.753906 -20.847656 6.082031 -19.015625 5.0625 -15.453125 C 4.625 -14.003906 4.304688 -12.617188 4.109375 -11.296875 C 3.910156 -9.972656 3.835938 -8.898438 3.890625 -8.078125 C 3.941406 -7.265625 4.132812 -6.859375 4.46875 -6.859375 C 4.570312 -6.859375 4.769531 -6.929688 5.0625 -7.078125 C 5.351562 -7.222656 5.644531 -7.382812 5.9375 -7.5625 C 6.695312 -8.070312 7.503906 -8.734375 8.359375 -9.546875 C 9.210938 -10.367188 9.984375 -11.195312 10.671875 -12.03125 C 11.066406 -12.539062 11.519531 -13.164062 12.03125 -13.90625 C 12.539062 -14.65625 12.992188 -15.347656 13.390625 -15.984375 C 13.785156 -16.617188 14.003906 -17.003906 14.046875 -17.140625 C 14.046875 -17.328125 13.570312 -17.601562 12.625 -17.96875 C 11.832031 -18.257812 10.976562 -18.65625 10.0625 -19.15625 C 9.15625 -19.664062 8.453125 -20.140625 7.953125 -20.578125 C 7.546875 -20.898438 7.253906 -21.023438 7.078125 -20.953125 Z M 11.921875 -29.78125 C 11.773438 -29.375 11.554688 -29.207031 11.265625 -29.28125 C 11.085938 -29.320312 10.863281 -29.175781 10.59375 -28.84375 C 10.320312 -28.519531 10.101562 -28.160156 9.9375 -27.765625 C 9.769531 -27.367188 9.742188 -27.097656 9.859375 -26.953125 C 10.035156 -26.691406 10.445312 -26.332031 11.09375 -25.875 C 11.75 -25.425781 12.476562 -24.96875 13.28125 -24.5 C 14.082031 -24.03125 14.789062 -23.65625 15.40625 -23.375 C 16.019531 -23.101562 16.363281 -23.023438 16.4375 -23.140625 C 16.476562 -23.210938 16.535156 -23.421875 16.609375 -23.765625 C 16.679688 -24.109375 16.753906 -24.476562 16.828125 -24.875 C 16.960938 -25.5625 17.019531 -26.332031 17 -27.1875 C 16.988281 -28.039062 16.921875 -28.835938 16.796875 -29.578125 C 16.671875 -30.328125 16.476562 -30.898438 16.21875 -31.296875 C 15.96875 -31.804688 15.675781 -32.175781 15.34375 -32.40625 C 15.019531 -32.644531 14.566406 -32.820312 13.984375 -32.9375 C 13.554688 -33.007812 13.304688 -33.015625 13.234375 -32.953125 C 13.160156 -32.898438 13.125 -32.726562 13.125 -32.4375 C 13.125 -32.007812 12.976562 -31.554688 12.6875 -31.078125 C 12.539062 -30.898438 12.394531 -30.679688 12.25 -30.421875 C 12.101562 -30.171875 11.992188 -29.957031 11.921875 -29.78125 Z M 2.71875 -1.46875 C 1.632812 -1.71875 0.765625 -2.242188 0.109375 -3.046875 C -0.796875 -4.210938 -1.359375 -5.773438 -1.578125 -7.734375 C -1.753906 -9.765625 -1.539062 -12.019531 -0.9375 -14.5 C -0.34375 -16.988281 0.675781 -19.90625 2.125 -23.25 L 3.328125 -26.015625 L 3 -27.109375 C 2.34375 -29.359375 2.628906 -31.066406 3.859375 -32.234375 C 4.148438 -32.515625 4.695312 -32.910156 5.5 -33.421875 C 6.300781 -33.929688 7.132812 -34.421875 8 -34.890625 C 8.875 -35.367188 9.546875 -35.695312 10.015625 -35.875 C 10.921875 -36.195312 12.019531 -36.359375 13.3125 -36.359375 C 14.601562 -36.359375 15.628906 -36.195312 16.390625 -35.875 C 17.835938 -35.21875 18.976562 -34.035156 19.8125 -32.328125 C 20.90625 -30.222656 21.1875 -27.460938 20.65625 -24.046875 C 20.132812 -20.640625 18.859375 -17.050781 16.828125 -13.28125 C 15.773438 -11.25 14.519531 -9.34375 13.0625 -7.5625 C 11.613281 -5.789062 10.179688 -4.378906 8.765625 -3.328125 C 7.566406 -2.410156 6.484375 -1.804688 5.515625 -1.515625 C 4.554688 -1.234375 3.625 -1.21875 2.71875 -1.46875 Z M 2.71875 -1.46875 "/></g></g></g><g fill="#ffffff" fill-opacity="1"><g transform="translate(79.365804, 46.252311)"><g><path d="M 0.4375 -3.59375 C -0.394531 -3.957031 -0.960938 -4.59375 -1.265625 -5.5 C -1.578125 -6.40625 -1.609375 -7.753906 -1.359375 -9.546875 C -1.109375 -11.347656 -0.582031 -13.738281 0.21875 -16.71875 C 0.46875 -17.625 0.773438 -18.691406 1.140625 -19.921875 C 1.503906 -21.160156 1.859375 -22.320312 2.203125 -23.40625 C 2.546875 -24.5 2.789062 -25.242188 2.9375 -25.640625 C 4.175781 -28.722656 5.320312 -30.765625 6.375 -31.765625 C 7.425781 -32.765625 8.457031 -32.8125 9.46875 -31.90625 C 9.832031 -31.644531 10.050781 -31.421875 10.125 -31.234375 C 10.195312 -31.054688 10.25 -30.753906 10.28125 -30.328125 C 10.28125 -30.066406 10.304688 -29.691406 10.359375 -29.203125 C 10.421875 -28.710938 10.46875 -28.269531 10.5 -27.875 C 10.570312 -27.4375 10.625 -26.835938 10.65625 -26.078125 C 10.695312 -25.316406 10.71875 -24.609375 10.71875 -23.953125 C 10.789062 -21.265625 10.875 -19.050781 10.96875 -17.3125 C 11.0625 -15.570312 11.1875 -14.128906 11.34375 -12.984375 C 11.507812 -11.835938 11.71875 -10.8125 11.96875 -9.90625 C 12.113281 -9.4375 12.25 -9.007812 12.375 -8.625 C 12.507812 -8.25 12.59375 -8.039062 12.625 -8 C 12.695312 -7.925781 12.878906 -8.070312 13.171875 -8.4375 C 13.460938 -8.800781 13.753906 -9.273438 14.046875 -9.859375 C 14.441406 -10.648438 14.820312 -11.734375 15.1875 -13.109375 C 15.550781 -14.492188 15.882812 -16.03125 16.1875 -17.71875 C 16.5 -19.40625 16.753906 -21.132812 16.953125 -22.90625 C 17.148438 -24.6875 17.269531 -26.378906 17.3125 -27.984375 C 17.382812 -29.898438 17.484375 -31.273438 17.609375 -32.109375 C 17.734375 -32.953125 17.941406 -33.535156 18.234375 -33.859375 C 18.742188 -34.328125 19.285156 -34.453125 19.859375 -34.234375 C 20.441406 -34.023438 20.878906 -33.535156 21.171875 -32.765625 C 21.609375 -31.640625 21.445312 -28.863281 20.6875 -24.4375 C 20.46875 -23.09375 20.265625 -21.941406 20.078125 -20.984375 C 19.898438 -20.023438 19.710938 -19.023438 19.515625 -17.984375 C 19.316406 -16.953125 19.050781 -15.640625 18.71875 -14.046875 C 18.03125 -10.554688 17.148438 -7.992188 16.078125 -6.359375 C 15.015625 -4.734375 13.789062 -4.082031 12.40625 -4.40625 C 11.9375 -4.519531 11.410156 -4.859375 10.828125 -5.421875 C 10.253906 -5.984375 9.800781 -6.609375 9.46875 -7.296875 C 9.320312 -7.660156 9.1875 -8.039062 9.0625 -8.4375 C 8.9375 -8.832031 8.789062 -9.394531 8.625 -10.125 C 8.46875 -10.851562 8.257812 -11.890625 8 -13.234375 C 7.75 -14.503906 7.53125 -15.582031 7.34375 -16.46875 C 7.164062 -17.351562 7.054688 -17.757812 7.015625 -17.6875 C 6.984375 -17.582031 6.867188 -17.113281 6.671875 -16.28125 C 6.472656 -15.445312 6.253906 -14.53125 6.015625 -13.53125 C 5.773438 -12.53125 5.582031 -11.6875 5.4375 -11 C 5.257812 -10.125 5.035156 -9.210938 4.765625 -8.265625 C 4.492188 -7.328125 4.226562 -6.515625 3.96875 -5.828125 C 3.71875 -5.140625 3.503906 -4.6875 3.328125 -4.46875 C 3.109375 -4.175781 2.796875 -3.910156 2.390625 -3.671875 C 1.992188 -3.441406 1.648438 -3.328125 1.359375 -3.328125 C 1.328125 -3.328125 1.207031 -3.359375 1 -3.421875 C 0.800781 -3.492188 0.613281 -3.550781 0.4375 -3.59375 Z M 0.4375 -3.59375 "/></g></g></g><g fill="#ffffff" fill-opacity="1"><g transform="translate(99.779378, 46.252311)"><g><path d="M 4.1875 -26.625 C 3.613281 -26.625 3.160156 -26.804688 2.828125 -27.171875 C 1.671875 -28.429688 2.78125 -30.007812 6.15625 -31.90625 C 7.351562 -32.550781 8.078125 -33.078125 8.328125 -33.484375 C 8.910156 -34.535156 9.507812 -35.003906 10.125 -34.890625 C 10.488281 -34.785156 10.671875 -34.640625 10.671875 -34.453125 C 10.671875 -34.234375 10.757812 -34.132812 10.9375 -34.15625 C 11.125 -34.175781 11.523438 -34.296875 12.140625 -34.515625 C 13.015625 -34.835938 13.945312 -35.085938 14.9375 -35.265625 C 15.9375 -35.453125 16.863281 -35.5625 17.71875 -35.59375 C 18.570312 -35.632812 19.21875 -35.566406 19.65625 -35.390625 C 20.488281 -35.054688 20.941406 -34.660156 21.015625 -34.203125 C 21.085938 -33.753906 20.796875 -33.1875 20.140625 -32.5 C 19.773438 -32.175781 19.3125 -31.847656 18.75 -31.515625 C 18.1875 -31.191406 17.394531 -30.828125 16.375 -30.421875 C 15.363281 -30.023438 13.96875 -29.519531 12.1875 -28.90625 L 8.8125 -27.703125 L 8.109375 -25.6875 C 7.929688 -25.144531 7.773438 -24.675781 7.640625 -24.28125 C 7.515625 -23.882812 7.453125 -23.664062 7.453125 -23.625 C 7.640625 -23.625 8.238281 -23.820312 9.25 -24.21875 C 11.207031 -24.914062 12.660156 -25.007812 13.609375 -24.5 C 14.265625 -24.164062 14.5625 -23.628906 14.5 -22.890625 C 14.445312 -22.148438 14.0625 -21.46875 13.34375 -20.84375 C 13.082031 -20.664062 12.78125 -20.46875 12.4375 -20.25 C 12.09375 -20.03125 11.578125 -19.753906 10.890625 -19.421875 C 10.203125 -19.097656 9.222656 -18.648438 7.953125 -18.078125 C 7.222656 -17.742188 6.582031 -17.429688 6.03125 -17.140625 C 5.488281 -16.859375 5.179688 -16.679688 5.109375 -16.609375 C 5.046875 -16.492188 4.910156 -16.117188 4.703125 -15.484375 C 4.503906 -14.847656 4.285156 -14.101562 4.046875 -13.25 C 3.816406 -12.394531 3.59375 -11.550781 3.375 -10.71875 C 3.15625 -9.882812 2.988281 -9.1875 2.875 -8.625 C 2.769531 -8.0625 2.738281 -7.78125 2.78125 -7.78125 C 2.8125 -7.78125 2.960938 -7.878906 3.234375 -8.078125 C 3.503906 -8.285156 3.820312 -8.515625 4.1875 -8.765625 C 5.28125 -9.597656 6.539062 -10.484375 7.96875 -11.421875 C 9.40625 -12.367188 10.832031 -13.269531 12.25 -14.125 C 13.664062 -14.976562 14.90625 -15.691406 15.96875 -16.265625 C 17.039062 -16.847656 17.742188 -17.160156 18.078125 -17.203125 C 18.910156 -17.347656 19.625 -17.140625 20.21875 -16.578125 C 20.820312 -16.015625 21.085938 -15.332031 21.015625 -14.53125 C 20.941406 -13.945312 20.648438 -13.398438 20.140625 -12.890625 C 19.628906 -12.390625 18.738281 -11.757812 17.46875 -11 C 15.695312 -9.945312 14.144531 -9.007812 12.8125 -8.1875 C 11.488281 -7.375 10.375 -6.660156 9.46875 -6.046875 C 7.550781 -4.773438 6.007812 -3.773438 4.84375 -3.046875 C 3.6875 -2.316406 2.789062 -1.796875 2.15625 -1.484375 C 1.519531 -1.179688 1.019531 -1.039062 0.65625 -1.0625 C 0.289062 -1.082031 -0.0859375 -1.203125 -0.484375 -1.421875 C -0.628906 -1.492188 -0.789062 -1.617188 -0.96875 -1.796875 C -1.15625 -1.972656 -1.285156 -2.132812 -1.359375 -2.28125 C -1.578125 -2.6875 -1.648438 -3.429688 -1.578125 -4.515625 C -1.503906 -5.609375 -1.300781 -6.90625 -0.96875 -8.40625 C -0.644531 -9.914062 -0.210938 -11.488281 0.328125 -13.125 C 0.503906 -13.664062 0.644531 -14.125 0.75 -14.5 C 0.863281 -14.882812 0.921875 -15.078125 0.921875 -15.078125 C 0.890625 -15.078125 0.800781 -15.054688 0.65625 -15.015625 C 0.507812 -14.984375 0.34375 -14.929688 0.15625 -14.859375 C -0.488281 -14.679688 -1.101562 -14.609375 -1.6875 -14.640625 C -2.269531 -14.679688 -2.6875 -14.8125 -2.9375 -15.03125 C -3.300781 -15.382812 -3.460938 -15.796875 -3.421875 -16.265625 C -3.390625 -16.742188 -3.175781 -17.203125 -2.78125 -17.640625 C -2.375 -18.035156 -1.695312 -18.566406 -0.75 -19.234375 C 0.1875 -19.910156 1.109375 -20.503906 2.015625 -21.015625 L 3.328125 -21.78125 L 4.078125 -23.84375 C 4.296875 -24.425781 4.488281 -24.953125 4.65625 -25.421875 C 4.820312 -25.890625 4.921875 -26.160156 4.953125 -26.234375 C 5.023438 -26.378906 5.003906 -26.46875 4.890625 -26.5 C 4.785156 -26.539062 4.550781 -26.582031 4.1875 -26.625 Z M 4.1875 -26.625 "/></g></g></g><g fill="#ffffff" fill-opacity="1"><g transform="translate(120.846169, 46.252311)"><g><path d="M 9.578125 -27.59375 C 9.472656 -27.019531 9.300781 -26.269531 9.0625 -25.34375 C 8.820312 -24.414062 8.613281 -23.625 8.4375 -22.96875 C 8.257812 -22.28125 8.101562 -21.691406 7.96875 -21.203125 C 7.84375 -20.710938 7.800781 -20.46875 7.84375 -20.46875 C 7.945312 -20.46875 8.34375 -20.59375 9.03125 -20.84375 C 9.363281 -20.988281 10.046875 -21.28125 11.078125 -21.71875 C 12.109375 -22.15625 13.257812 -22.644531 14.53125 -23.1875 C 15.800781 -23.726562 16.910156 -24.203125 17.859375 -24.609375 C 18.796875 -25.003906 19.804688 -25.507812 20.890625 -26.125 C 21.984375 -26.75 23.03125 -27.382812 24.03125 -28.03125 C 25.03125 -28.6875 25.851562 -29.269531 26.5 -29.78125 C 27.15625 -30.289062 27.484375 -30.648438 27.484375 -30.859375 C 27.523438 -31.148438 27.023438 -31.347656 25.984375 -31.453125 C 24.953125 -31.566406 23.628906 -31.597656 22.015625 -31.546875 C 20.398438 -31.492188 18.691406 -31.359375 16.890625 -31.140625 C 15.097656 -30.921875 13.441406 -30.628906 11.921875 -30.265625 C 11.453125 -30.160156 11.035156 -30.0625 10.671875 -29.96875 C 10.304688 -29.875 10.109375 -29.828125 10.078125 -29.828125 C 10.078125 -29.796875 10.03125 -29.570312 9.9375 -29.15625 C 9.84375 -28.738281 9.722656 -28.21875 9.578125 -27.59375 Z M -0.046875 -1.84375 C -0.265625 -2.101562 -0.410156 -2.394531 -0.484375 -2.71875 C -0.484375 -2.90625 -0.425781 -3.382812 -0.3125 -4.15625 C -0.207031 -4.9375 -0.0664062 -5.835938 0.109375 -6.859375 C 0.285156 -7.878906 0.46875 -8.859375 0.65625 -9.796875 C 0.832031 -10.410156 0.957031 -10.953125 1.03125 -11.421875 C 1.101562 -11.898438 1.140625 -12.140625 1.140625 -12.140625 C 1.109375 -12.140625 1.007812 -12.191406 0.84375 -12.296875 C 0.675781 -12.410156 0.484375 -12.519531 0.265625 -12.625 C -0.203125 -12.914062 -0.585938 -13.320312 -0.890625 -13.84375 C -1.203125 -14.375 -1.34375 -14.875 -1.3125 -15.34375 C -1.238281 -15.894531 -1.035156 -16.332031 -0.703125 -16.65625 C -0.378906 -16.976562 0.234375 -17.359375 1.140625 -17.796875 L 2.828125 -18.625 L 3.640625 -21.390625 C 3.859375 -22.148438 4.125 -23.019531 4.4375 -24 C 4.75 -24.988281 4.992188 -25.769531 5.171875 -26.34375 C 5.390625 -26.957031 5.5625 -27.472656 5.6875 -27.890625 C 5.8125 -28.316406 5.859375 -28.53125 5.828125 -28.53125 C 5.710938 -28.5625 5.335938 -28.429688 4.703125 -28.140625 C 4.066406 -27.847656 3.5 -27.554688 3 -27.265625 C 2.226562 -26.867188 1.804688 -26.507812 1.734375 -26.1875 C 1.671875 -25.601562 1.347656 -25.273438 0.765625 -25.203125 C 0.179688 -25.128906 -0.425781 -25.273438 -1.0625 -25.640625 C -1.695312 -26.003906 -2.195312 -26.53125 -2.5625 -27.21875 C -4.300781 -30.664062 -0.488281 -33.296875 8.875 -35.109375 C 11.707031 -35.648438 14.300781 -36.03125 16.65625 -36.25 C 19.019531 -36.46875 21.304688 -36.539062 23.515625 -36.46875 C 27.796875 -36.320312 30.664062 -34.976562 32.125 -32.4375 C 33.132812 -30.695312 32.945312 -28.890625 31.5625 -27.015625 C 30.1875 -25.148438 27.5625 -23.113281 23.6875 -20.90625 C 22.738281 -20.363281 21.554688 -19.742188 20.140625 -19.046875 C 18.722656 -18.359375 17.222656 -17.640625 15.640625 -16.890625 C 14.066406 -16.148438 12.550781 -15.472656 11.09375 -14.859375 C 9.644531 -14.242188 8.429688 -13.753906 7.453125 -13.390625 C 6.398438 -13.023438 5.765625 -12.734375 5.546875 -12.515625 C 5.515625 -12.441406 5.453125 -12.257812 5.359375 -11.96875 C 5.265625 -11.6875 5.164062 -11.363281 5.0625 -11 C 4.082031 -6.96875 3.179688 -4.21875 2.359375 -2.75 C 1.546875 -1.28125 0.742188 -0.976562 -0.046875 -1.84375 Z M -0.046875 -1.84375 "/></g></g></g><g fill="#ffffff" fill-opacity="1"><g transform="translate(150.023961, 46.252311)"><g><path d="M 7.078125 -20.953125 C 6.753906 -20.847656 6.082031 -19.015625 5.0625 -15.453125 C 4.625 -14.003906 4.304688 -12.617188 4.109375 -11.296875 C 3.910156 -9.972656 3.835938 -8.898438 3.890625 -8.078125 C 3.941406 -7.265625 4.132812 -6.859375 4.46875 -6.859375 C 4.570312 -6.859375 4.769531 -6.929688 5.0625 -7.078125 C 5.351562 -7.222656 5.644531 -7.382812 5.9375 -7.5625 C 6.695312 -8.070312 7.503906 -8.734375 8.359375 -9.546875 C 9.210938 -10.367188 9.984375 -11.195312 10.671875 -12.03125 C 11.066406 -12.539062 11.519531 -13.164062 12.03125 -13.90625 C 12.539062 -14.65625 12.992188 -15.347656 13.390625 -15.984375 C 13.785156 -16.617188 14.003906 -17.003906 14.046875 -17.140625 C 14.046875 -17.328125 13.570312 -17.601562 12.625 -17.96875 C 11.832031 -18.257812 10.976562 -18.65625 10.0625 -19.15625 C 9.15625 -19.664062 8.453125 -20.140625 7.953125 -20.578125 C 7.546875 -20.898438 7.253906 -21.023438 7.078125 -20.953125 Z M 11.921875 -29.78125 C 11.773438 -29.375 11.554688 -29.207031 11.265625 -29.28125 C 11.085938 -29.320312 10.863281 -29.175781 10.59375 -28.84375 C 10.320312 -28.519531 10.101562 -28.160156 9.9375 -27.765625 C 9.769531 -27.367188 9.742188 -27.097656 9.859375 -26.953125 C 10.035156 -26.691406 10.445312 -26.332031 11.09375 -25.875 C 11.75 -25.425781 12.476562 -24.96875 13.28125 -24.5 C 14.082031 -24.03125 14.789062 -23.65625 15.40625 -23.375 C 16.019531 -23.101562 16.363281 -23.023438 16.4375 -23.140625 C 16.476562 -23.210938 16.535156 -23.421875 16.609375 -23.765625 C 16.679688 -24.109375 16.753906 -24.476562 16.828125 -24.875 C 16.960938 -25.5625 17.019531 -26.332031 17 -27.1875 C 16.988281 -28.039062 16.921875 -28.835938 16.796875 -29.578125 C 16.671875 -30.328125 16.476562 -30.898438 16.21875 -31.296875 C 15.96875 -31.804688 15.675781 -32.175781 15.34375 -32.40625 C 15.019531 -32.644531 14.566406 -32.820312 13.984375 -32.9375 C 13.554688 -33.007812 13.304688 -33.015625 13.234375 -32.953125 C 13.160156 -32.898438 13.125 -32.726562 13.125 -32.4375 C 13.125 -32.007812 12.976562 -31.554688 12.6875 -31.078125 C 12.539062 -30.898438 12.394531 -30.679688 12.25 -30.421875 C 12.101562 -30.171875 11.992188 -29.957031 11.921875 -29.78125 Z M 2.71875 -1.46875 C 1.632812 -1.71875 0.765625 -2.242188 0.109375 -3.046875 C -0.796875 -4.210938 -1.359375 -5.773438 -1.578125 -7.734375 C -1.753906 -9.765625 -1.539062 -12.019531 -0.9375 -14.5 C -0.34375 -16.988281 0.675781 -19.90625 2.125 -23.25 L 3.328125 -26.015625 L 3 -27.109375 C 2.34375 -29.359375 2.628906 -31.066406 3.859375 -32.234375 C 4.148438 -32.515625 4.695312 -32.910156 5.5 -33.421875 C 6.300781 -33.929688 7.132812 -34.421875 8 -34.890625 C 8.875 -35.367188 9.546875 -35.695312 10.015625 -35.875 C 10.921875 -36.195312 12.019531 -36.359375 13.3125 -36.359375 C 14.601562 -36.359375 15.628906 -36.195312 16.390625 -35.875 C 17.835938 -35.21875 18.976562 -34.035156 19.8125 -32.328125 C 20.90625 -30.222656 21.1875 -27.460938 20.65625 -24.046875 C 20.132812 -20.640625 18.859375 -17.050781 16.828125 -13.28125 C 15.773438 -11.25 14.519531 -9.34375 13.0625 -7.5625 C 11.613281 -5.789062 10.179688 -4.378906 8.765625 -3.328125 C 7.566406 -2.410156 6.484375 -1.804688 5.515625 -1.515625 C 4.554688 -1.234375 3.625 -1.21875 2.71875 -1.46875 Z M 2.71875 -1.46875 "/></g></g></g><g fill="#ffffff" fill-opacity="1"><g transform="translate(169.675421, 46.252311)"><g><path d="M 18.625 -15.953125 C 20.976562 -14.242188 21.882812 -12.265625 21.34375 -10.015625 C 20.832031 -7.734375 18.035156 -5.175781 12.953125 -2.34375 C 9.941406 -0.675781 7.144531 0.5 4.5625 1.1875 C 1.988281 1.882812 0.0507812 2 -1.25 1.53125 C -2.226562 1.125 -2.9375 0.488281 -3.375 -0.375 C -3.8125 -1.25 -3.8125 -2.03125 -3.375 -2.71875 C -3.195312 -3.050781 -2.988281 -3.320312 -2.75 -3.53125 C -2.507812 -3.75 -2.109375 -3.992188 -1.546875 -4.265625 C -0.984375 -4.546875 -0.148438 -4.894531 0.953125 -5.3125 C 2.054688 -5.726562 3.550781 -6.28125 5.4375 -6.96875 C 7.257812 -7.625 8.945312 -8.304688 10.5 -9.015625 C 12.0625 -9.722656 13.320312 -10.382812 14.28125 -11 C 15.25 -11.613281 15.695312 -12.046875 15.625 -12.296875 C 15.582031 -12.367188 15.191406 -12.53125 14.453125 -12.78125 C 13.710938 -13.039062 12.921875 -13.265625 12.078125 -13.453125 C 11.753906 -13.523438 11.109375 -13.613281 10.140625 -13.71875 C 9.179688 -13.820312 8.195312 -13.910156 7.1875 -13.984375 C 6.164062 -14.097656 5.210938 -14.21875 4.328125 -14.34375 C 3.441406 -14.46875 2.867188 -14.550781 2.609375 -14.59375 C 2.023438 -14.769531 1.367188 -15.148438 0.640625 -15.734375 C -0.078125 -16.316406 -0.582031 -16.878906 -0.875 -17.421875 C -2.070312 -19.597656 -1.203125 -22.703125 1.734375 -26.734375 C 2.503906 -27.785156 3.554688 -28.910156 4.890625 -30.109375 C 6.234375 -31.304688 7.722656 -32.472656 9.359375 -33.609375 C 10.992188 -34.753906 12.628906 -35.769531 14.265625 -36.65625 C 15.898438 -37.550781 17.382812 -38.21875 18.71875 -38.65625 C 22.101562 -39.738281 24.679688 -39.644531 26.453125 -38.375 C 27.796875 -37.4375 28.453125 -36.222656 28.421875 -34.734375 C 28.378906 -34.191406 28.273438 -33.742188 28.109375 -33.390625 C 27.953125 -33.046875 27.546875 -32.421875 26.890625 -31.515625 C 26.492188 -30.929688 25.820312 -30.128906 24.875 -29.109375 C 23.9375 -28.097656 22.941406 -27.066406 21.890625 -26.015625 C 20.898438 -25.078125 19.976562 -24.15625 19.125 -23.25 C 18.28125 -22.34375 17.726562 -21.722656 17.46875 -21.390625 C 17 -20.804688 16.628906 -20.453125 16.359375 -20.328125 C 16.085938 -20.203125 15.785156 -20.265625 15.453125 -20.515625 C 14.691406 -21.097656 14.65625 -22.113281 15.34375 -23.5625 C 16.039062 -25.019531 17.550781 -27.054688 19.875 -29.671875 C 21.363281 -31.378906 22.40625 -32.640625 23 -33.453125 C 23.59375 -34.265625 23.765625 -34.691406 23.515625 -34.734375 C 23.046875 -34.835938 22.289062 -34.644531 21.25 -34.15625 C 20.21875 -33.664062 19.054688 -33.003906 17.765625 -32.171875 C 16.484375 -31.335938 15.222656 -30.394531 13.984375 -29.34375 C 12.535156 -28.101562 11.347656 -26.972656 10.421875 -25.953125 C 9.492188 -24.941406 8.488281 -23.710938 7.40625 -22.265625 L 5.9375 -20.25 L 6.640625 -20.09375 C 9.429688 -19.539062 11.828125 -18.921875 13.828125 -18.234375 C 15.828125 -17.546875 17.425781 -16.785156 18.625 -15.953125 Z M 18.625 -15.953125 "/></g></g></g><g fill="#ffffff" fill-opacity="1"><g transform="translate(192.320878, 46.252311)"><g><path d="M 8.171875 -24.875 C 8.390625 -25.632812 8.566406 -26.296875 8.703125 -26.859375 C 8.847656 -27.421875 8.90625 -27.722656 8.875 -27.765625 C 8.832031 -27.796875 8.484375 -27.738281 7.828125 -27.59375 C 7.179688 -27.445312 6.429688 -27.265625 5.578125 -27.046875 C 4.722656 -26.835938 3.988281 -26.628906 3.375 -26.421875 C 2.757812 -26.222656 2.453125 -26.109375 2.453125 -26.078125 C 2.453125 -26.035156 2.578125 -25.925781 2.828125 -25.75 C 3.085938 -25.570312 3.378906 -25.375 3.703125 -25.15625 C 4.066406 -24.9375 4.484375 -24.632812 4.953125 -24.25 C 5.421875 -23.875 5.820312 -23.503906 6.15625 -23.140625 C 6.476562 -22.804688 6.753906 -22.53125 6.984375 -22.3125 C 7.222656 -22.101562 7.34375 -22 7.34375 -22 C 7.382812 -22 7.484375 -22.28125 7.640625 -22.84375 C 7.804688 -23.40625 7.984375 -24.082031 8.171875 -24.875 Z M 6.203125 -20.46875 C 5.835938 -21.15625 5.25 -21.851562 4.4375 -22.5625 C 3.625 -23.269531 2.757812 -23.859375 1.84375 -24.328125 C 0.976562 -24.804688 0.378906 -25.085938 0.046875 -25.171875 C -0.273438 -25.265625 -0.800781 -25.273438 -1.53125 -25.203125 C -2.9375 -24.984375 -4.128906 -25.347656 -5.109375 -26.296875 C -5.765625 -26.910156 -6.15625 -27.5625 -6.28125 -28.25 C -6.414062 -28.9375 -6.265625 -29.535156 -5.828125 -30.046875 C -5.421875 -30.554688 -4.554688 -31.082031 -3.234375 -31.625 C -1.910156 -32.164062 -0.28125 -32.707031 1.65625 -33.25 C 3.601562 -33.800781 5.726562 -34.300781 8.03125 -34.75 C 10.332031 -35.207031 12.679688 -35.582031 15.078125 -35.875 C 17.546875 -36.195312 19.566406 -36.421875 21.140625 -36.546875 C 22.722656 -36.679688 23.992188 -36.703125 24.953125 -36.609375 C 25.921875 -36.515625 26.691406 -36.304688 27.265625 -35.984375 C 27.847656 -35.660156 28.378906 -35.207031 28.859375 -34.625 C 29.578125 -33.75 29.753906 -32.878906 29.390625 -32.015625 C 29.210938 -31.578125 28.867188 -31.273438 28.359375 -31.109375 C 27.847656 -30.941406 27.015625 -30.820312 25.859375 -30.75 C 25.203125 -30.71875 24.191406 -30.609375 22.828125 -30.421875 C 21.472656 -30.242188 20.03125 -30.023438 18.5 -29.765625 C 16.976562 -29.515625 15.640625 -29.265625 14.484375 -29.015625 L 12.578125 -28.640625 L 12.1875 -27 C 12.082031 -26.5625 11.875 -25.722656 11.5625 -24.484375 C 11.257812 -23.253906 10.941406 -22.003906 10.609375 -20.734375 C 10.253906 -19.285156 9.972656 -18.007812 9.765625 -16.90625 C 9.566406 -15.800781 9.46875 -15.03125 9.46875 -14.59375 C 9.46875 -13.96875 9.382812 -13.117188 9.21875 -12.046875 C 9.0625 -10.984375 8.851562 -9.816406 8.59375 -8.546875 C 8.34375 -7.273438 8.070312 -6.03125 7.78125 -4.8125 C 7.488281 -3.601562 7.21875 -2.539062 6.96875 -1.625 C 6.71875 -0.71875 6.5 -0.0859375 6.3125 0.265625 C 6.019531 0.890625 5.628906 1.238281 5.140625 1.3125 C 4.648438 1.382812 4.148438 1.179688 3.640625 0.703125 C 3.359375 0.410156 3.160156 -0.015625 3.046875 -0.578125 C 2.941406 -1.140625 2.960938 -1.988281 3.109375 -3.125 C 3.253906 -4.269531 3.5625 -5.859375 4.03125 -7.890625 C 4.5 -9.921875 5.132812 -12.570312 5.9375 -15.84375 L 6.796875 -19.4375 Z M 6.203125 -20.46875 "/></g></g></g></svg>